Coordinates
version=1
nRows=8
nColumns=40
inDegrees=yes

Units are S.I. units (second, meters, Newtons, ...)
Angles are in degrees.

endheader
time	pelvis_tilt	pelvis_list	pelvis_rotation	pelvis_tx	pelvis_ty	pelvis_tz	hip_flexion_r	hip_adduction_r	hip_rotation_r	knee_angle_r	knee_angle_r_beta	ankle_angle_r	subtalar_angle_r	mtp_angle_r	hip_flexion_l	hip_adduction_l	hip_rotation_l	knee_angle_l	knee_angle_l_beta	ankle_angle_l	subtalar_angle_l	mtp_angle_l	lumbar_extension	lumbar_bending	lumbar_rotation	arm_flex_r	arm_add_r	arm_rot_r	elbow_flex_r	pro_sup_r	wrist_flex_r	wrist_dev_r	arm_flex_l	arm_add_l	arm_rot_l	elbow_flex_l	pro_sup_l	wrist_flex_l	wrist_dev_l
     10.50000000	     -2.28913465	     11.38700136	     76.63872400	      0.62275567	      1.00347404	     -1.01746042	      7.52757085	     -7.33243733	      6.10753843	     64.94452875	      1.13349586	     -9.99723324	      0.00000000	      0.00000000	     -5.54559419	      8.45130173	    -16.61991461	     11.67237360	      0.20372135	     16.98737971	      0.00000000	      0.00000000	    -31.81558525	     -7.92379917	      5.11566577	     11.94146590	    -16.75820832	     -1.48578741	    142.03243824	     85.96665911	      0.00000000	      0.00000000	      1.44527473	    -35.30842582	     -7.35210146	    147.30803533	      1.15213592	      0.00000000	      0.00000000
     10.51000000	     -2.78533874	     11.05893022	     76.10630932	      0.62293255	      1.00143374	     -1.01503943	     10.81147289	     -7.32003131	      7.71710647	     67.36717011	      1.17577893	     -7.15725560	      0.00000000	      0.00000000	     -5.65761531	      9.17071521	    -17.26354969	     11.72173516	      0.20458287	     17.09200362	      0.00000000	      0.00000000	    -31.81701613	     -8.44128267	      4.51020568	     12.08157663	    -15.81890698	     -1.25887272	    141.80632329	     86.14811155	      0.00000000	      0.00000000	      2.41618164	    -34.56630325	     -6.27023429	    146.71791691	      1.19314776	      0.00000000	      0.00000000
     10.52000000	     -2.61543987	     11.29523781	     75.93608549	      0.62303117	      1.00106630	     -1.01389494	     12.60502136	     -6.70298502	      8.70892017	     68.43605153	      1.19443443	     -4.10667251	      0.00000000	      0.00000000	     -6.84225004	      9.38128144	    -17.18180007	     11.43022685	      0.19949509	     16.81377298	      0.00000000	      0.00000000	    -32.48072713	     -8.22284463	      3.73133256	     12.21026716	    -14.94876770	     -1.00942823	    141.54269639	     86.04375519	      0.00000000	      0.00000000	      3.21268803	    -33.57595587	     -5.26032350	    146.14607685	      1.18066485	      0.00000000	      0.00000000
     10.53000000	     -2.38653036	     11.39397449	     75.73245337	      0.62286838	      1.00099635	     -1.01237189	     14.44222092	     -5.91186593	      9.74073052	     68.86858845	      1.20198362	     -0.95351214	      0.00000000	      0.00000000	     -7.88914701	      9.52021758	    -17.03550823	     11.00411575	      0.19205805	     17.15001450	      0.00000000	      0.00000000	    -33.04709997	     -7.90583856	      3.04563081	     12.39969048	    -14.13530649	     -0.79198971	    141.20339746	     85.92376006	      0.00000000	      0.00000000	      4.01828811	    -32.30803482	     -4.28180883	    145.48072999	      1.16131357	      0.00000000	      0.00000000
     10.54000000	     -2.07603924	     11.38249625	     75.55853439	      0.62243648	      1.00111319	     -1.01125292	     16.10280959	     -5.09287232	     10.60422127	     68.46007304	      1.19485368	      1.30925356	      0.00000000	      0.00000000	     -8.84400869	      9.53555764	    -16.89385433	     10.59206588	      0.18486642	     17.61089828	      0.00000000	      0.00000000	    -33.49302980	     -7.44153316	      2.45719491	     12.50789725	    -13.40159439	     -0.72463283	    140.91603484	     85.80532313	      0.00000000	      0.00000000	      4.68539254	    -30.79640636	     -3.36427011	    144.81749644	      1.17539966	      0.00000000	      0.00000000
     10.55000000	     -1.65829851	     11.26492272	     75.41509407	      0.62213497	      1.00153500	     -1.01075781	     17.49419814	     -4.16725926	     11.30288216	     67.26739991	      1.17403761	      3.26062130	      0.00000000	      0.00000000	     -9.76278330	      9.37342694	    -16.74176808	     10.21308912	      0.17825203	     17.68993332	      0.00000000	      0.00000000	    -33.80705455	     -6.82600974	      1.98561693	     12.45845914	    -12.70260434	     -0.78308593	    140.67507545	     85.71721045	      0.00000000	      0.00000000	      5.11389459	    -29.21209245	     -2.49107566	    144.18666579	      1.15588473	      0.00000000	      0.00000000
     10.56000000	     -1.05414518	     11.10662038	     75.18538628	      0.62183655	      1.00221208	     -1.01036413	     18.57884404	     -3.07044193	     11.91186617	     65.31485238	      1.13995922	      5.25826931	      0.00000000	      0.00000000	    -10.70851552	      9.01340946	    -16.62911479	      9.84309940	      0.17179449	     17.94963180	      0.00000000	      0.00000000	    -34.12759715	     -6.04246230	      1.72357124	     12.37735872	    -12.12529930	     -0.96771675	    140.56551526	     85.74618920	      0.00000000	      0.00000000	      5.41501511	    -27.48893761	     -1.68853213	    143.62213903	      1.14801818	      0.00000000	      0.00000000
     10.57000000	     -0.49004213	     10.76604202	     74.97507452	      0.62127061	      1.00275435	     -1.00985008	     19.64198974	     -2.03910925	     12.52166430	     62.74881552	      1.09517343	      6.67713853	      0.00000000	      0.00000000	    -11.40926384	      8.64687394	    -16.59144851	      9.54414875	      0.16657682	     18.20520552	      0.00000000	      0.00000000	    -34.30809965	     -5.20962943	      1.47397399	     12.34570967	    -11.66670626	     -1.08109978	    140.46827213	     85.74681527	      0.00000000	      0.00000000	      5.49597470	    -25.63726902	     -1.10419284	    143.15613270	      1.15526161	      0.00000000	      0.00000000
